<?xml version="1.0" encoding="UTF-8"?>
<svg id="Ebene_1" data-name="Ebene 1" xmlns="http://www.w3.org/2000/svg" viewBox="0 0 850.41 398.71">
  <defs>
    <style>
      .cls-1 {
        stroke: #1d1d1b;
        stroke-miterlimit: 10;
      }

      .cls-1, .cls-2 {
        fill: #1d1d1b;
      }
    </style>
  </defs>
  <g>
    <polygon class="cls-1" points="339.42 69.08 423.58 22.73 423.58 .98 320.47 58.14 339.42 69.08"/>
    <polygon class="cls-1" points="336.18 168.48 336.66 74.95 317.83 64.08 317.24 179.42 336.18 168.48"/>
    <polygon class="cls-1" points="423.83 .85 423.83 22.73 507.88 69.23 526.72 58.35 423.83 .85"/>
    <polygon class="cls-1" points="508.36 174.08 423.58 220.98 423.58 242.86 527.3 185.02 508.36 174.08"/>
    <polygon class="cls-1" points="511.59 74.68 511.11 168.21 529.95 179.08 530.53 63.74 511.59 74.68"/>
    <polygon class="cls-1" points="423.33 220.98 339.89 173.81 321.06 184.68 423.33 242.86 423.33 220.98"/>
  </g>
  <g>
    <polygon class="cls-2" points="436.67 107.8 436.67 20.88 423.88 13.5 411.11 20.88 411.11 79.13 436.67 107.8"/>
    <polygon class="cls-2" points="411.11 135.57 411.11 227.68 423.88 235.06 436.67 227.68 436.67 164.24 411.11 135.57"/>
    <polygon class="cls-2" points="490.24 173.41 490.35 173.35 490.35 69.81 457.3 50.73 457.3 136.47 490.24 173.41"/>
    <polygon class="cls-2" points="357.42 69.83 357.42 173.35 390.47 192.43 390.47 106.9 357.42 69.83"/>
  </g>
  <polygon class="cls-2" points="390.47 98.82 390.47 58.58 390.47 53.61 390.47 50.73 362.12 67.1 390.47 98.91 390.47 98.82"/>
  <polygon class="cls-2" points="457.3 144.47 457.3 184.97 457.3 190.39 457.3 192.43 485.53 176.13 457.3 144.47"/>
  <polygon class="cls-2" points="411.11 130.05 411.11 135.53 411.11 142.86 436.67 171.53 436.67 158.72 411.11 130.05"/>
  <g>
    <polygon class="cls-2" points="436.67 113.33 436.67 98 411.11 69.33 411.11 79.16 411.11 84.66 436.67 113.33"/>
    <polygon class="cls-2" points="411.11 92.65 411.11 122.05 436.67 150.72 436.67 121.32 411.11 92.65"/>
  </g>
  <g>
    <path class="cls-2" d="M335.54,271.66l-45.06,127.03h-38.72l-45.06-127.03h32.94l31.48,95.91,31.68-95.91h32.75Z"/>
    <polygon class="cls-2" points="206.61 296.46 206.61 296.41 197.84 271.66 128.79 271.66 128.79 398.7 206.61 398.7 206.61 373.9 159.74 373.9 159.74 346.04 201.18 346.04 201.18 322.15 159.74 322.15 159.74 296.46 206.61 296.46"/>
    <path class="cls-2" d="M372.05,296.46v25.7h41.44v23.88h-41.44v27.87h46.87v24.79h-77.81v-127.03h77.81v24.79h-46.87Z"/>
    <path class="cls-2" d="M495.46,398.7l-26.42-47.95h-7.42v47.95h-30.94v-127.03h51.93c10.02,0,18.55,1.75,25.61,5.24,7.06,3.5,12.34,8.3,15.84,14.38,3.5,6.09,5.24,12.88,5.24,20.36,0,8.45-2.38,15.99-7.14,22.62-4.76,6.64-11.79,11.34-21.08,14.11l29.32,50.31h-34.94Zm-33.84-69.84h19.18c5.67,0,9.92-1.38,12.76-4.16s4.25-6.7,4.25-11.77-1.42-8.62-4.25-11.4c-2.84-2.78-7.09-4.16-12.76-4.16h-19.18v31.48Z"/>
    <g>
      <path class="cls-2" d="M487.91,296.46h9.67c-2.47-1.88-5.71-3-9.67-3.42v3.42Z"/>
      <path class="cls-2" d="M519.22,271.66c6.17,3.73,10.94,8.48,14.28,14.29,1.91,3.32,3.34,6.83,4.33,10.51h37.61v102.24h30.95v-102.24h33.65v-24.79h-120.83Z"/>
    </g>
    <path class="cls-2" d="M845.34,332.74c-3.38,6.09-8.57,11.01-15.56,14.75-7,3.74-15.69,5.61-26.06,5.61h-19.18v45.6h-30.94v-127.04h50.12c10.14,0,18.7,1.75,25.7,5.24,7,3.5,12.25,8.33,15.74,14.48,3.5,6.15,5.25,13.21,5.25,21.17,0,7.36-1.69,14.09-5.07,20.18h0Zm-30.76-8.41c2.9-2.78,4.34-6.7,4.34-11.77s-1.44-8.98-4.34-11.77c-2.9-2.78-7.3-4.16-13.21-4.16h-16.83v31.85h16.83c5.91,0,10.31-1.38,13.21-4.16Z"/>
  </g>
  <g>
    <polygon class="cls-2" points="0 289.45 0 398.7 30.94 398.7 30.94 336.37 0 289.45"/>
    <polygon class="cls-2" points="82.7 271.66 82.7 350.38 30.94 271.66 0 271.66 0 273.52 30.94 320.45 30.94 320.34 82.7 398.7 113.64 398.7 113.64 271.66 82.7 271.66"/>
  </g>
  <polygon class="cls-2" points="699.94 271.66 670.17 271.66 681.82 305.95 681.85 305.87 695.36 345.78 695.41 345.91 695.41 345.91 697.59 352.38 666.29 352.38 677.22 319.68 662.46 276.23 618.15 398.7 650.54 398.7 658.15 376.26 705.55 376.26 713.15 398.7 745.91 398.7 699.94 271.66"/>
</svg>